<?xml version="1.0" standalone="no"?>
<!DOCTYPE svg PUBLIC "-//W3C//DTD SVG 20010904//EN"
 "http://www.w3.org/TR/2001/REC-SVG-20010904/DTD/svg10.dtd">
<svg version="1.0" xmlns="http://www.w3.org/2000/svg"
 width="512.000000pt" height="512.000000pt" viewBox="0 0 512.000000 512.000000"
 preserveAspectRatio="xMidYMid meet">
<metadata>
Created by potrace 1.14, written by Peter Selinger 2001-2017
</metadata>
<g transform="translate(0.000000,512.000000) scale(0.100000,-0.100000)"
fill="#000000" stroke="none">
<path d="M1130 5105 c-151 -25 -358 -96 -432 -147 -14 -10 -29 -18 -32 -18 -4
0 -39 -22 -79 -49 -306 -207 -510 -530 -572 -904 -11 -67 -14 -337 -11 -1462
2 -1255 4 -1386 19 -1450 9 -38 19 -80 22 -92 11 -46 65 -184 101 -255 160
-318 467 -575 805 -672 193 -56 157 -55 1604 -55 1468 0 1432 -1 1631 60 479
148 841 571 919 1074 11 74 14 335 13 1430 0 1493 2 1439 -70 1650 -160 472
-565 812 -1058 890 -121 19 -2747 19 -2860 0z"/>
</g>
</svg>
